<svg xmlns="http://www.w3.org/2000/svg"  viewBox="0 0 64 64" width="64px" height="64px"><linearGradient id="ym8GG1OpKpQG1BUgZTX0ea" x1="32" x2="32" y1="40.081" y2="49.808" gradientUnits="userSpaceOnUse"><stop offset="0" stop-color="#6dc7ff"/><stop offset="1" stop-color="#e6abff"/></linearGradient><path fill="url(#ym8GG1OpKpQG1BUgZTX0ea)" d="M32,53L32,53c-2.209,0-4-1.791-4-4v-7c0-2.209,1.791-4,4-4h0c2.209,0,4,1.791,4,4v7	C36,51.209,34.209,53,32,53z"/><linearGradient id="ym8GG1OpKpQG1BUgZTX0eb" x1="20" x2="20" y1="24.698" y2="35.229" gradientUnits="userSpaceOnUse"><stop offset="0" stop-color="#6dc7ff"/><stop offset="1" stop-color="#e6abff"/></linearGradient><path fill="url(#ym8GG1OpKpQG1BUgZTX0eb)" d="M16,37L16,37c-1.657,0-3-1.343-3-3v0c0-1.657,1.343-3,3-3h0c2.761,0,5-2.239,5-5v0	c0-1.657,1.343-3,3-3h0c1.657,0,3,1.343,3,3v0C27,32.075,22.075,37,16,37z"/><linearGradient id="ym8GG1OpKpQG1BUgZTX0ec" x1="44" x2="44" y1="24.698" y2="35.229" gradientUnits="userSpaceOnUse"><stop offset="0" stop-color="#6dc7ff"/><stop offset="1" stop-color="#e6abff"/></linearGradient><path fill="url(#ym8GG1OpKpQG1BUgZTX0ec)" d="M48,37L48,37c1.657,0,3-1.343,3-3v0c0-1.657-1.343-3-3-3h0c-2.761,0-5-2.239-5-5v0	c0-1.657-1.343-3-3-3h0c-1.657,0-3,1.343-3,3v0C37,32.075,41.925,37,48,37z"/><linearGradient id="ym8GG1OpKpQG1BUgZTX0ed" x1="32" x2="32" y1="6.427" y2="57.081" gradientUnits="userSpaceOnUse"><stop offset="0" stop-color="#1a6dff"/><stop offset="1" stop-color="#c822ff"/></linearGradient><path fill="url(#ym8GG1OpKpQG1BUgZTX0ed)" d="M32,37c-2.757,0-5,2.243-5,5v7c0,2.757,2.243,5,5,5s5-2.243,5-5v-7 C37,39.243,34.757,37,32,37z M35,49c0,1.654-1.346,3-3,3s-3-1.346-3-3v-7c0-1.654,1.346-3,3-3s3,1.346,3,3V49z"/><linearGradient id="ym8GG1OpKpQG1BUgZTX0ee" x1="32" x2="32" y1="6.427" y2="57.081" gradientUnits="userSpaceOnUse"><stop offset="0" stop-color="#1a6dff"/><stop offset="1" stop-color="#c822ff"/></linearGradient><path fill="url(#ym8GG1OpKpQG1BUgZTX0ee)" d="M32.96,31.6c-0.48-0.8-1.44-0.8-1.921,0L29,35h6L32.96,31.6z"/><linearGradient id="ym8GG1OpKpQG1BUgZTX0ef" x1="20" x2="20" y1="6.427" y2="57.081" gradientUnits="userSpaceOnUse"><stop offset="0" stop-color="#1a6dff"/><stop offset="1" stop-color="#c822ff"/></linearGradient><path fill="url(#ym8GG1OpKpQG1BUgZTX0ef)" d="M24,22c-2.206,0-4,1.794-4,4s-1.794,4-4,4s-4,1.794-4,4s1.794,4,4,4c6.617,0,12-5.383,12-12 C28,23.794,26.206,22,24,22z M16,36c-1.103,0-2-0.897-2-2s0.897-2,2-2c3.309,0,6-2.691,6-6c0-1.103,0.897-2,2-2s2,0.897,2,2 C26,31.514,21.514,36,16,36z"/><linearGradient id="ym8GG1OpKpQG1BUgZTX0eg" x1="44" x2="44" y1="6.427" y2="57.081" gradientUnits="userSpaceOnUse"><stop offset="0" stop-color="#1a6dff"/><stop offset="1" stop-color="#c822ff"/></linearGradient><path fill="url(#ym8GG1OpKpQG1BUgZTX0eg)" d="M48,30c-2.206,0-4-1.794-4-4s-1.794-4-4-4s-4,1.794-4,4c0,6.617,5.383,12,12,12 c2.206,0,4-1.794,4-4S50.206,30,48,30z M48,36c-5.514,0-10-4.486-10-10c0-1.103,0.897-2,2-2s2,0.897,2,2c0,3.309,2.691,6,6,6 c1.103,0,2,0.897,2,2S49.103,36,48,36z"/><linearGradient id="ym8GG1OpKpQG1BUgZTX0eh" x1="32" x2="32" y1="6.427" y2="57.081" gradientUnits="userSpaceOnUse"><stop offset="0" stop-color="#1a6dff"/><stop offset="1" stop-color="#c822ff"/></linearGradient><path fill="url(#ym8GG1OpKpQG1BUgZTX0eh)" d="M51.671,26.466C51.264,26.322,51,25.988,51,25.615v-0.183c0-10.35-8.213-19.062-18.308-19.42 c-5.202-0.182-10.141,1.703-13.885,5.315C15.063,14.941,13,19.797,13,25v0.611c0,0.375-0.264,0.71-0.671,0.854 c-3.417,1.209-5.596,4.582-5.301,8.202C7.362,38.779,10.974,42,15.25,42H16v5c0,2.757,2.243,5,5,5c0,3.309,2.691,6,6,6h10 c3.309,0,6-2.691,6-6c2.757,0,5-2.243,5-5v-5h0.75c4.276,0,7.888-3.221,8.222-7.333C57.268,31.048,55.088,27.675,51.671,26.466z M18,47v-5h2c0.551,0,1,0.449,1,1v7C19.346,50,18,48.654,18,47z M46,47c0,1.654-1.346,3-3,3v-7c0-0.551,0.449-1,1-1h2V47z M48.75,40H44c-1.654,0-3,1.346-3,3v9c0,2.206-1.794,4-4,4H27c-2.206,0-4-1.794-4-4v-9c0-1.654-1.346-3-3-3h-4.75 c-3.242,0-5.978-2.414-6.229-5.495c-0.221-2.716,1.414-5.247,3.975-6.154C14.213,27.921,15,26.845,15,25.611V25 c0-4.655,1.845-9,5.196-12.233c0.867-0.836,1.809-1.56,2.804-2.184V13h2V9.518c0.651-0.295,1.316-0.559,2-0.768V16h2V8.272 c0.657-0.116,1.325-0.186,2-0.225V18h2V8.044c0.678,0.04,1.344,0.128,2,0.25V16h2V8.796c0.683,0.22,1.355,0.468,2,0.772V13h2 v-2.294c4.782,3.114,8,8.592,8,14.727v0.183c0,1.231,0.787,2.306,2.004,2.736c2.562,0.907,4.196,3.438,3.975,6.154 C54.729,37.586,51.993,40,48.75,40z"/></svg>